<svg width="19" height="18" viewBox="0 0 19 18" fill="none" xmlns="http://www.w3.org/2000/svg">
<g clip-path="url(#clip0_162_8168)">
<path d="M1.25 3V7.5H5.75" stroke="#0E4123" stroke-width="2" stroke-linecap="round" stroke-linejoin="round"/>
<path d="M17.75 15V10.5H13.25" stroke="#0E4123" stroke-width="2" stroke-linecap="round" stroke-linejoin="round"/>
<path d="M15.8675 6.75018C15.4871 5.67527 14.8407 4.71423 13.9884 3.95674C13.1361 3.19925 12.1059 2.67 10.9938 2.41837C9.88167 2.16674 8.72393 2.20093 7.62861 2.51776C6.53328 2.83458 5.53606 3.42371 4.73 4.23018L1.25 7.50018M17.75 10.5002L14.27 13.7702C13.4639 14.5766 12.4667 15.1658 11.3714 15.4826C10.2761 15.7994 9.11833 15.8336 8.00621 15.582C6.8941 15.3304 5.86385 14.8011 5.0116 14.0436C4.15935 13.2861 3.51288 12.3251 3.1325 11.2502" stroke="#0E4123" stroke-width="2" stroke-linecap="round" stroke-linejoin="round"/>
</g>
<defs>
<clipPath id="clip0_162_8168">
<rect width="18" height="18" fill="white" transform="translate(0.5)"/>
</clipPath>
</defs>
</svg>
