<svg width="18" height="18" viewBox="0 0 18 18" fill="none" xmlns="http://www.w3.org/2000/svg">
<path d="M18 18H0V0H18V18Z" stroke="#E5E7EB"/>
<path d="M10.793 1.22415C10.3887 1.40344 10.125 1.80774 10.125 2.25071V4.50071H6.1875C2.77031 4.50071 0 7.27102 0 10.6882C0 14.6714 2.86523 16.4503 3.52266 16.8089C3.61055 16.8581 3.70898 16.8757 3.80742 16.8757C4.19063 16.8757 4.5 16.5628 4.5 16.1831C4.5 15.9195 4.34883 15.6769 4.15547 15.4976C3.825 15.1847 3.375 14.5695 3.375 13.5007C3.375 11.6374 4.88672 10.1257 6.75 10.1257H10.125V12.3757C10.125 12.8187 10.3852 13.223 10.793 13.4023C11.2008 13.5816 11.6719 13.5077 12.0023 13.2124L17.6273 8.14993C17.8629 7.93547 18 7.63313 18 7.31321C18 6.99329 17.8664 6.69094 17.6273 6.47649L12.0023 1.41399C11.6719 1.11516 11.1973 1.04133 10.793 1.22415Z" fill="#6B7280"/>
</svg>
