<svg width="14" height="15" viewBox="0 0 14 15" fill="none" xmlns="http://www.w3.org/2000/svg">
<g clip-path="url(#clip0_251_13644)">
<path d="M12.6875 7.75C12.6875 9.25842 12.0883 10.7051 11.0217 11.7717C9.95506 12.8383 8.50842 13.4375 7 13.4375C5.49158 13.4375 4.04494 12.8383 2.97833 11.7717C1.91172 10.7051 1.3125 9.25842 1.3125 7.75C1.3125 6.24158 1.91172 4.79494 2.97833 3.72833C4.04494 2.66172 5.49158 2.0625 7 2.0625C8.50842 2.0625 9.95506 2.66172 11.0217 3.72833C12.0883 4.79494 12.6875 6.24158 12.6875 7.75ZM0 7.75C0 9.60652 0.737498 11.387 2.05025 12.6997C3.36301 14.0125 5.14348 14.75 7 14.75C8.85652 14.75 10.637 14.0125 11.9497 12.6997C13.2625 11.387 14 9.60652 14 7.75C14 5.89348 13.2625 4.11301 11.9497 2.80025C10.637 1.4875 8.85652 0.75 7 0.75C5.14348 0.75 3.36301 1.4875 2.05025 2.80025C0.737498 4.11301 0 5.89348 0 7.75ZM6.34375 4.03125V7.75C6.34375 7.96875 6.45312 8.17383 6.63633 8.29688L9.26133 10.0469C9.56211 10.2492 9.96953 10.1672 10.1719 9.86367C10.3742 9.56016 10.2922 9.15547 9.98867 8.95312L7.65625 7.4V4.03125C7.65625 3.66758 7.36367 3.375 7 3.375C6.63633 3.375 6.34375 3.66758 6.34375 4.03125Z" fill="#4B5563"/>
</g>
<defs>
<clipPath id="clip0_251_13644">
<path d="M0 0.75H14V14.75H0V0.75Z" fill="white"/>
</clipPath>
</defs>
</svg>
