<svg width="19" height="19" viewBox="0 0 19 19" fill="none" xmlns="http://www.w3.org/2000/svg">
<g clip-path="url(#clip0_162_8152)">
<path d="M1.25 3.5V8H5.75" stroke="#6B7280" stroke-width="2" stroke-linecap="round" stroke-linejoin="round"/>
<path d="M17.75 15.5V11H13.25" stroke="#6B7280" stroke-width="2" stroke-linecap="round" stroke-linejoin="round"/>
<path d="M15.8675 7.25018C15.4871 6.17527 14.8407 5.21423 13.9884 4.45674C13.1361 3.69925 12.1059 3.17 10.9938 2.91837C9.88167 2.66674 8.72393 2.70093 7.62861 3.01776C6.53328 3.33458 5.53606 3.92371 4.73 4.73018L1.25 8.00018M17.75 11.0002L14.27 14.2702C13.4639 15.0766 12.4667 15.6658 11.3714 15.9826C10.2761 16.2994 9.11833 16.3336 8.00621 16.082C6.8941 15.8304 5.86385 15.3011 5.0116 14.5436C4.15935 13.7861 3.51288 12.8251 3.1325 11.7502" stroke="#6B7280" stroke-width="2" stroke-linecap="round" stroke-linejoin="round"/>
</g>
<defs>
<clipPath id="clip0_162_8152">
<rect width="18" height="18" fill="white" transform="translate(0.5 0.5)"/>
</clipPath>
</defs>
</svg>
