<svg width="24" height="24" viewBox="0 0 24 24" fill="none" xmlns="http://www.w3.org/2000/svg">
<g clip-path="url(#clip0_50_4260)">
<path d="M14.9204 0.383129C14.1223 0.13932 13.2515 0 12.3626 0C9.80479 0 7.50093 1.11456 5.95898 2.87347L9.91363 6.06041L14.9204 0.383129Z" fill="#1A73E8"/>
<path d="M5.95918 2.87305C4.74376 4.26624 4 6.0774 4 8.02788C4 9.54298 4.30839 10.762 4.83447 11.8592L9.91383 6.05999L5.95918 2.87305Z" fill="#EA4335"/>
<path d="M12.3812 4.96295C14.159 4.96295 15.5921 6.33873 15.5921 8.0454C15.5921 8.79424 15.3018 9.49084 14.8302 10.0307C14.8302 10.0307 17.3517 7.13982 19.8188 4.33601C18.803 2.45519 17.0433 1.02717 14.9209 0.382812L9.91406 6.06009C10.5127 5.39832 11.3835 4.96295 12.3812 4.96295Z" fill="#4285F4"/>
<path d="M12.381 11.1109C10.6032 11.1109 9.17007 9.7351 9.17007 8.02844C9.17007 7.27959 9.44218 6.583 9.91384 6.06055L4.83447 11.8597C5.70522 13.7057 7.15647 15.2034 8.644 17.0668L14.8299 10.0137C14.2313 10.6929 13.3606 11.1109 12.381 11.1109Z" fill="#FBBC04"/>
<path d="M14.7211 19.0168C17.5148 14.8197 20.762 12.9215 20.762 8.04533C20.762 6.70437 20.4173 5.4505 19.8186 4.33594L8.64404 17.0663C9.1157 17.6584 9.60549 18.3376 10.0771 19.0342C11.7824 21.5593 11.3107 23.057 12.3991 23.057C13.4876 23.057 13.0159 21.5419 14.7211 19.0168Z" fill="#34A853"/>
</g>
<defs>
<clipPath id="clip0_50_4260">
<rect width="24" height="24" fill="white"/>
</clipPath>
</defs>
</svg>
