<svg width="27" height="24" viewBox="0 0 27 24" fill="none" xmlns="http://www.w3.org/2000/svg">
<path d="M21.9578 0H3.62109V4.78955H21.9578V0Z" fill="#0E4123"/>
<path d="M22.2731 4.89746H3.27539V23.7581H22.2731V4.89746Z" fill="#A7B2BD"/>
<path d="M26.3061 23.9518C26.1531 23.8073 -0.0283336 24.2302 3.29859e-05 23.8047C-0.0339231 23.3785 26.1595 23.8013 26.3064 23.6566C26.4898 23.654 26.5028 23.9546 26.3061 23.9518Z" fill="#2E0F07"/>
<path d="M3.27539 4.89746V13.3672C6.88438 12.7334 16.0576 11.7715 22.2731 16.7994V4.89746H3.27539Z" fill="#66798C"/>
<path d="M22.2734 23.906H3.27572C2.85134 23.9368 3.27167 5.04584 3.12788 4.89758C3.09728 4.47347 22.1253 4.89381 22.2735 4.75016C22.6976 4.71955 22.2773 23.6106 22.4209 23.7588C22.4207 23.84 22.3546 23.906 22.2731 23.906H22.2734ZM3.42314 23.611H22.1258V5.04528H3.42314V23.611Z" fill="#2E0F07"/>
<path d="M22.4929 5.89648H20.3301L21.1821 9.45675H23.5853L22.4929 5.89648Z" fill="#0E4123"/>
<path d="M23.585 9.6033C23.4968 9.54838 20.9743 9.73396 21.0383 9.49025L20.1862 5.92985C20.1757 5.88597 20.1859 5.83958 20.2138 5.80422C20.2418 5.76873 20.2845 5.74805 20.3297 5.74805H22.4925C22.5574 5.74805 22.6145 5.79039 22.6335 5.85229L23.726 9.4127C23.7564 9.50367 23.6813 9.60623 23.585 9.60344V9.6033ZM21.2982 9.30831H23.3856L22.3837 6.0429H20.5168L21.2983 9.30831H21.2982Z" fill="#2E0F07"/>
<path d="M20.3049 5.89648H18.1421L18.7511 9.45675H21.1543L20.3049 5.89648Z" fill="#C9DAEC"/>
<path d="M21.1542 9.6033H18.751C18.6792 9.6033 18.6177 9.55146 18.6057 9.48075L17.9967 5.92034C17.9895 5.87745 18.0013 5.83357 18.0294 5.80045C18.0575 5.76719 18.0987 5.74805 18.1422 5.74805H20.305C20.3734 5.74805 20.4326 5.79486 20.4485 5.86124L21.2979 9.42164C21.3215 9.51079 21.247 9.60581 21.1544 9.6033H21.1542ZM18.8754 9.30831H20.9674L20.1884 6.0429H18.3167L18.8752 9.30831H18.8754Z" fill="#2E0F07"/>
<path d="M18.1169 5.89648H15.9541L16.3201 9.45675H18.7233L18.1169 5.89648Z" fill="#0E4123"/>
<path d="M18.7233 9.6033H16.3201C16.2445 9.6033 16.1811 9.54615 16.1734 9.47097L15.8074 5.91056C15.8031 5.86906 15.8167 5.8277 15.8446 5.79668C15.8726 5.76565 15.9124 5.74805 15.954 5.74805H18.1169C18.1888 5.74805 18.2502 5.79989 18.2623 5.87074L18.8687 9.43114C18.8854 9.51806 18.8121 9.60568 18.7232 9.60344L18.7233 9.6033ZM16.4532 9.30831H18.5485L17.9925 6.0429H16.1175L16.4532 9.30831Z" fill="#2E0F07"/>
<path d="M15.9295 5.89648H13.7666L13.8894 9.45675H16.2926L15.9295 5.89648Z" fill="#C9DAEC"/>
<path d="M16.2932 9.60344H13.89C13.8105 9.60344 13.7453 9.54042 13.7425 9.46104L13.6197 5.90064C13.6183 5.86068 13.6333 5.82183 13.6611 5.79304C13.6889 5.76426 13.7272 5.74805 13.7671 5.74805H15.93C16.0056 5.74805 16.069 5.80534 16.0767 5.88052L16.4399 9.44092C16.4502 9.52504 16.3781 9.60539 16.2932 9.60344ZM14.0325 9.30845H16.13L15.7968 6.04304H13.9197L14.0324 9.30845H14.0325Z" fill="#2E0F07"/>
<path d="M13.742 5.89648H11.5792L11.459 9.45675H13.8622L13.742 5.89648Z" fill="#0E4123"/>
<path d="M13.8622 9.60344H11.459C11.4191 9.60344 11.3808 9.58723 11.353 9.55844C11.3252 9.52966 11.3102 9.49095 11.3116 9.45098L11.4318 5.89058C11.4344 5.81107 11.4997 5.74805 11.5792 5.74805H13.7421C13.8216 5.74805 13.8868 5.81107 13.8895 5.89058L14.0097 9.45098C14.014 9.53189 13.9434 9.60512 13.8622 9.60344ZM11.6116 9.30845H13.7098L13.5995 6.04304H11.7217L11.6115 9.30845H11.6116Z" fill="#2E0F07"/>
<path d="M11.5548 5.89648H9.39198L9.02881 9.45675H11.432L11.5548 5.89648Z" fill="#FF9695"/>
<path d="M11.5548 5.89648H9.39198L9.02881 9.45675H11.432L11.5548 5.89648Z" fill="#C9DAEC"/>
<path d="M11.432 9.60344H9.02882C8.98704 9.60344 8.94735 9.58583 8.91941 9.55481C8.89146 9.52379 8.8779 9.48256 8.8821 9.44092L9.24527 5.88052C9.25296 5.80534 9.31626 5.74805 9.392 5.74805H11.5548C11.5948 5.74805 11.6331 5.76426 11.6609 5.79304C11.6887 5.82183 11.7037 5.86068 11.7023 5.90064L11.5793 9.46104C11.5765 9.54042 11.5114 9.60344 11.4319 9.60344H11.432ZM9.19203 9.30845H11.2895L11.4023 6.04304H9.52517L9.19203 9.30845Z" fill="#2E0F07"/>
<path d="M9.36682 5.89648H7.20397L6.59766 9.45675H9.00085L9.36682 5.89648Z" fill="#0E4123"/>
<path d="M9.0013 9.60344H6.5981C6.55464 9.60344 6.51342 9.58429 6.48547 9.55104C6.45738 9.51778 6.44551 9.47404 6.45277 9.43114L7.05909 5.87074C7.07111 5.79989 7.13259 5.74805 7.20442 5.74805H9.36727C9.40905 5.74805 9.44873 5.76579 9.47682 5.79668C9.50477 5.8277 9.51832 5.86906 9.51399 5.91056L9.14802 9.47097C9.14033 9.54615 9.07689 9.6033 9.0013 9.6033V9.60344ZM6.77291 9.30845H8.86827L9.20391 6.04304H7.32892L6.77291 9.30845Z" fill="#2E0F07"/>
<path d="M7.17916 5.89648H5.01631L4.16699 9.45675H6.57019L7.17916 5.89648Z" fill="#C9DAEC"/>
<path d="M6.57062 9.6033H4.16742C4.12229 9.6033 4.07967 9.58262 4.05172 9.54726C4.02377 9.51191 4.01357 9.46552 4.02405 9.42164L4.87337 5.86124C4.88916 5.79486 4.94855 5.74805 5.01688 5.74805H7.17973C7.22319 5.74805 7.26441 5.76719 7.2925 5.80045C7.32059 5.83371 7.33246 5.87758 7.32506 5.92034L6.71609 9.48075C6.70393 9.5516 6.64258 9.6033 6.57076 9.6033H6.57062ZM4.35425 9.30831H6.44625L7.00478 6.0429H5.13314L4.35411 9.30831H4.35425Z" fill="#2E0F07"/>
<path d="M4.99164 5.89648H2.82865L1.73633 9.45675H4.13952L4.99164 5.89648Z" fill="#0E4123"/>
<path d="M4.13954 9.60347H1.73635C1.68953 9.60347 1.64552 9.58125 1.61771 9.54366C1.5899 9.50608 1.58166 9.45745 1.59535 9.41273L2.68782 5.85233C2.70682 5.79042 2.76397 5.74808 2.82881 5.74808H4.99166C5.08403 5.74599 5.15906 5.84031 5.13503 5.92988L4.28291 9.49028C4.26698 9.55666 4.20774 9.60347 4.13954 9.60347ZM1.93575 9.30848H4.02314L4.80469 6.04307H2.93781L1.93589 9.30848H1.93575Z" fill="#2E0F07"/>
<path d="M2.95766 6.04395L2.24528 9.30838H1.93115L2.95766 6.04395Z" fill="#F8E8E9"/>
<path d="M5.14148 6.04395L4.35938 9.30838H4.75036L5.14148 6.04395Z" fill="#F8E8E9"/>
<path d="M6.77002 9.30838L7.35971 6.04395L7.17973 9.30838H6.77002Z" fill="#F8E8E9"/>
<path d="M9.55046 6.04395L9.19287 9.30838H9.55046V6.04395Z" fill="#F8E8E9"/>
<path d="M11.6289 9.30838L11.7315 6.04395L12.0842 9.30838H11.6289Z" fill="#F8E8E9"/>
<path d="M13.9282 6.04395L14.0453 9.30838H14.5004L13.9282 6.04395Z" fill="#F8E8E9"/>
<path d="M16.1235 6.04395L16.4688 9.3102H16.9175L16.1235 6.04395Z" fill="#F8E8E9"/>
<path d="M18.3149 6.04395L18.8855 9.3102H19.4625L18.3149 6.04395Z" fill="#F8E8E9"/>
<path d="M20.5137 6.04395L21.3214 9.3102H21.8856L20.5137 6.04395Z" fill="#F8E8E9"/>
<path d="M22.3832 11.2548C21.282 11.2024 21.1081 10.3611 21.1816 9.46582H23.5848C23.6586 10.3615 23.4837 11.2028 22.3832 11.2548Z" fill="#0E4123"/>
<path d="M22.3828 11.4003C21.2134 11.3541 20.9394 10.4396 21.0337 9.46383C21.0337 9.38236 21.0997 9.31641 21.1812 9.31641H23.5844C23.6658 9.31641 23.7318 9.3825 23.7318 9.46383C23.826 10.4393 23.5519 11.3545 22.3826 11.4003H22.3828ZM21.3287 9.61125C21.2554 10.3699 21.4676 11.0689 22.3829 11.1052C23.298 11.0687 23.5104 10.3698 23.4369 9.61125H21.3287Z" fill="#2E0F07"/>
<path d="M19.9531 11.2548C18.8518 11.2024 18.678 10.3611 18.7515 9.46582H21.1547C21.2284 10.3615 21.0535 11.2028 19.9531 11.2548Z" fill="#88ACD5"/>
<path d="M19.9526 11.4003C18.7833 11.3541 18.5092 10.4396 18.6036 9.46383C18.6036 9.38236 18.6695 9.31641 18.751 9.31641H21.1542C21.2356 9.31641 21.3016 9.3825 21.3016 9.46383C21.3958 10.4393 21.1218 11.3545 19.9526 11.4003ZM18.8984 9.61125C18.825 10.3699 19.0373 11.0689 19.9526 11.1052C20.8677 11.0687 21.0801 10.3698 21.0066 9.61125H18.8984Z" fill="#2E0F07"/>
<path d="M17.5224 11.2548C16.4211 11.2024 16.2473 10.3611 16.3208 9.46582H18.724C18.7978 10.3615 18.6228 11.2028 17.5224 11.2548Z" fill="#0E4123"/>
<path d="M17.5224 11.4003C16.3531 11.3541 16.0791 10.4396 16.1734 9.46383C16.1734 9.38236 16.2393 9.31641 16.3208 9.31641H18.724C18.8055 9.31641 18.8714 9.3825 18.8714 9.46383C18.9656 10.4393 18.6916 11.3545 17.5224 11.4003ZM16.4682 9.61125C16.3949 10.3699 16.6071 11.0689 17.5224 11.1052C18.4375 11.0687 18.6499 10.3698 18.5764 9.61125H16.4682Z" fill="#2E0F07"/>
<path d="M15.0917 11.2548C13.9905 11.2024 13.8166 10.3611 13.8901 9.46582H16.2933C16.3671 10.3615 16.1922 11.2028 15.0917 11.2548Z" fill="#88ACD5"/>
<path d="M15.0917 11.4003C13.9224 11.3541 13.6484 10.4396 13.7427 9.46383C13.7427 9.38236 13.8087 9.31641 13.8901 9.31641H16.2933C16.3748 9.31641 16.4408 9.3825 16.4408 9.46383C16.5349 10.4393 16.2609 11.3545 15.0916 11.4003H15.0917ZM14.0377 9.61125C13.9643 10.3699 14.1766 11.0689 15.0919 11.1052C16.007 11.0687 16.2194 10.3698 16.1459 9.61125H14.0377Z" fill="#2E0F07"/>
<path d="M12.6606 11.2548C11.5593 11.2024 11.3855 10.3611 11.459 9.46582H13.8622C13.936 10.3615 13.761 11.2028 12.6606 11.2548Z" fill="#0E4123"/>
<path d="M12.6606 11.4003C11.4913 11.3541 11.2172 10.4396 11.3116 9.46383C11.3116 9.38236 11.3775 9.31641 11.459 9.31641H13.8622C13.9437 9.31641 14.0096 9.3825 14.0096 9.46383C14.1038 10.4393 13.8298 11.3545 12.6606 11.4003ZM11.6064 9.61125C11.5331 10.3699 11.7453 11.0689 12.6606 11.1052C13.5757 11.0687 13.7881 10.3698 13.7146 9.61125H11.6064Z" fill="#2E0F07"/>
<path d="M10.2299 11.2548C9.12865 11.2024 8.95481 10.3611 9.02832 9.46582H11.4315C11.5053 10.3615 11.3303 11.2028 10.2299 11.2548Z" fill="#88ACD5"/>
<path d="M10.2299 11.4003C9.06061 11.3541 8.78658 10.4396 8.88091 9.46383C8.88091 9.38236 8.94686 9.31641 9.02833 9.31641H11.4315C11.513 9.31641 11.5789 9.3825 11.5789 9.46383C11.6731 10.4393 11.3991 11.3545 10.2299 11.4003ZM9.17575 9.61125C9.10239 10.3699 9.31465 11.0689 10.2299 11.1052C11.1451 11.0687 11.3575 10.3698 11.284 9.61125H9.17575Z" fill="#2E0F07"/>
<path d="M7.79925 11.2548C6.69798 11.2024 6.52415 10.3611 6.59765 9.46582H9.00085C9.07463 10.3615 8.89968 11.2028 7.79925 11.2548Z" fill="#0E4123"/>
<path d="M7.79926 11.4003C6.62994 11.3541 6.35592 10.4396 6.45024 9.46383C6.45024 9.38236 6.5162 9.31641 6.59767 9.31641H9.00086C9.08233 9.31641 9.14828 9.3825 9.14828 9.46383C9.24247 10.4393 8.96844 11.3545 7.79926 11.4003ZM6.74523 9.61125C6.67187 10.3699 6.88413 11.0689 7.7994 11.1052C8.71454 11.0687 8.92694 10.3698 8.85344 9.61125H6.74523Z" fill="#2E0F07"/>
<path d="M5.36956 11.2548C4.26829 11.2024 4.09446 10.3611 4.16796 9.46582H6.57116C6.64494 10.3615 6.46999 11.2028 5.36956 11.2548Z" fill="#A0BDDD"/>
<path d="M5.36909 11.4003C4.19977 11.3541 3.92575 10.4396 4.02007 9.46383C4.02007 9.38236 4.08602 9.31641 4.16749 9.31641H6.57069C6.65215 9.31641 6.71811 9.3825 6.71811 9.46383C6.81229 10.4393 6.53827 11.3545 5.36909 11.4003ZM4.31491 9.61125C4.24155 10.3699 4.45381 11.0689 5.36909 11.1052C6.28423 11.0687 6.49663 10.3698 6.42312 9.61125H4.31491Z" fill="#2E0F07"/>
<path d="M2.9389 11.2548C1.83763 11.2024 1.6638 10.3611 1.7373 9.46582H4.1405C4.21428 10.3615 4.03933 11.2028 2.9389 11.2548Z" fill="#0E4123"/>
<path d="M2.93842 11.4003C1.76911 11.3541 1.49508 10.4396 1.5894 9.46383C1.5894 9.38236 1.65536 9.31641 1.73683 9.31641H4.14002C4.22149 9.31641 4.28745 9.3825 4.28745 9.46383C4.38163 10.4393 4.1076 11.3545 2.93828 11.4003H2.93842ZM1.88425 9.61125C1.81089 10.3699 2.02315 11.0689 2.93842 11.1052C3.85356 11.0687 4.06596 10.3698 3.99246 9.61125H1.88425Z" fill="#2E0F07"/>
<path d="M23.8605 4.79004H1.91113V6.14718H23.8605V4.79004Z" fill="#0E4123"/>
<path d="M21.52 4.79018C16.7568 6.13153 4.52897 5.76276 1.91113 5.66592V6.14718H23.8605V4.79004H21.5201L21.52 4.79018Z" fill="#0E4123"/>
<path d="M23.8604 6.2947C23.7081 6.1491 1.73544 6.57446 1.76409 6.14756C1.76367 6.14714 1.76367 4.79014 1.76367 4.79014C1.76367 4.70867 1.82977 4.64271 1.91109 4.64271C2.06341 4.78832 24.0361 4.36295 24.0074 4.78986C24.0078 4.79028 24.0078 6.14728 24.0078 6.14728C24.0078 6.22875 23.9417 6.2947 23.8604 6.2947ZM2.05866 5.99971H23.713V4.93756H2.05866V5.99971Z" fill="#2E0F07"/>
<path d="M23.7129 4.93652H2.05859V5.03965H23.7129V4.93652Z" fill="#FFDEDE"/>
<path d="M6.53839 3.6858C6.30168 3.6116 6.04107 3.55794 5.95541 3.36636C5.94479 3.31857 6.19296 2.97425 6.21504 2.92702C6.29735 2.78337 6.53658 3.03811 6.69224 3.04077C7.22925 3.22215 7.70631 2.90578 6.94181 2.63944C6.48739 2.44366 6.08215 2.27276 6.0753 1.7609C5.99216 0.529942 8.41492 0.896895 8.20378 1.35761L7.97209 1.72093C7.92221 1.79346 7.89691 1.78843 7.82439 1.74497C7.65517 1.58958 6.83212 1.4592 7.07959 1.88471C7.41091 2.11877 7.9999 2.19241 8.19972 2.56957C8.63836 3.68035 7.39288 3.91707 6.53853 3.68566L6.53839 3.6858Z" fill="white"/>
<path d="M9.43577 3.64568C9.32748 3.66314 9.40279 1.73824 9.38183 1.66502H8.80682C8.63578 1.66418 8.59022 1.60032 8.58715 1.43738C8.59483 1.33971 8.56311 1.10662 8.63312 1.04011C8.63089 0.925102 10.8337 1.01132 10.9153 0.986168C11.1925 0.959758 11.128 1.25684 11.135 1.43752C11.132 1.60046 11.0862 1.66432 10.9153 1.66516H10.3403C10.3197 1.74593 10.3951 3.65644 10.2864 3.64582C10.2504 3.68313 10.1871 3.70171 10.0966 3.70171C9.9732 3.68508 9.52087 3.74755 9.43563 3.64582L9.43577 3.64568Z" fill="white"/>
<path d="M11.7215 3.39182C11.2315 2.94801 11.2315 1.73913 11.7215 1.29532C12.1574 0.802602 13.442 0.802602 13.8778 1.29532C14.3679 1.73913 14.3679 2.94801 13.8778 3.39182C13.442 3.88454 12.1574 3.88454 11.7215 3.39182ZM13.1751 2.90469C13.3296 2.68893 13.3292 1.99415 13.1751 1.78049C13.0422 1.53525 12.5572 1.53525 12.4244 1.78049C12.2703 1.99415 12.2699 2.6888 12.4244 2.90455C12.5572 3.15245 13.0423 3.15245 13.1751 2.90455V2.90469Z" fill="white"/>
<path d="M14.8589 3.64526C14.7537 3.70297 14.824 1.26159 14.8049 1.21338C14.807 1.05017 14.8755 0.986029 15.0446 0.985749C15.519 1.00447 16.5578 0.890727 16.8715 1.2233C17.2603 1.55169 17.2618 2.48025 16.7458 2.73472L17.1172 3.52941C17.1576 3.60208 17.1205 3.70674 17.0254 3.70115C15.9537 3.7066 16.3165 3.80959 15.8992 2.87851H15.7634V3.47352C15.761 3.63911 15.6921 3.70059 15.5198 3.70115C15.3965 3.68508 14.9441 3.74657 14.8589 3.64526ZM15.915 2.21168C16.2824 2.2448 16.2813 1.63106 15.915 1.6646H15.6435V2.21168H15.915Z" fill="white"/>
<path d="M17.7579 3.64627C17.6525 3.70566 17.7229 1.26149 17.7039 1.21439C17.706 1.05118 17.7745 0.987039 17.9436 0.986759C18.0413 1.00954 19.7511 0.928488 19.7705 1.04056C19.8401 1.11951 19.8394 1.5323 19.7705 1.61167C19.7004 1.72095 18.781 1.64381 18.6624 1.66561V2.00909C18.784 2.02879 19.3305 1.95878 19.4111 2.06303C19.4784 2.12815 19.4522 2.35606 19.4571 2.45234C19.4541 2.61527 19.4083 2.67913 19.2374 2.67997H18.6624V3.02345C18.7887 3.04777 19.6875 2.96588 19.7666 3.07739C19.836 3.15704 19.8358 3.56857 19.7666 3.6485C19.7516 3.76127 18.0359 3.67855 17.9437 3.70244C17.8558 3.70244 17.7939 3.68386 17.758 3.64655L17.7579 3.64627Z" fill="white"/>
<path d="M13.8621 15.6494H4.1416V23.7696H13.8621V15.6494Z" fill="#A4DDF4"/>
<path d="M9.84133 15.6494L4.1416 21.3492V23.2745L11.7665 15.6494H9.84133Z" fill="white"/>
<path d="M13.8624 17.2285L7.32178 23.7693H7.96359L13.8624 17.8703V17.2285Z" fill="white"/>
<path d="M13.8621 23.916H4.14156C4.0601 23.916 3.99414 23.8499 3.99414 23.7686V15.6484C3.99414 15.5669 4.06024 15.501 4.14156 15.501H13.8621C13.9436 15.501 14.0095 15.5671 14.0095 15.6484V23.7686C14.0095 23.8501 13.9434 23.916 13.8621 23.916ZM4.28899 23.6212H13.7147V15.796H4.28899V23.6212Z" fill="#2E0F07"/>
<path d="M21.0389 15.6494H14.9102V23.6859H21.0389V15.6494Z" fill="#A4DDF4"/>
<path d="M21.0389 17.2822L14.9102 23.411V23.6852H16.2405L21.0389 18.8866V17.2822Z" fill="white"/>
<path d="M18.865 15.6494L14.9102 19.6043V20.567L19.8276 15.6494H18.865Z" fill="white"/>
<path d="M21.0388 23.8322H14.9101C14.8287 23.8322 14.7627 23.7661 14.7627 23.6848V15.6484C14.7627 15.5669 14.8288 15.501 14.9101 15.501H21.0388C21.1203 15.501 21.1863 15.5671 21.1863 15.6484V23.6848C21.1863 23.7662 21.1202 23.8322 21.0388 23.8322ZM15.0575 23.5372H20.8914V15.7957H15.0575V23.5372Z" fill="#2E0F07"/>
<path d="M25.6556 21.9492H22.7266L22.4995 19.7725H26.1098L25.6556 21.9492Z" fill="#A7B2BD"/>
<path d="M25.6557 22.0968H22.7266C22.651 22.0968 22.5877 22.0398 22.5799 21.9646L22.3528 19.7878C22.3485 19.7463 22.3619 19.7048 22.39 19.6738C22.418 19.6427 22.4578 19.625 22.4996 19.625H26.1098C26.1543 19.625 26.1963 19.645 26.2243 19.6795C26.2522 19.7139 26.2633 19.7592 26.2542 19.8026L25.8 21.9795C25.7858 22.0478 25.7255 22.0968 25.6557 22.0968ZM22.8595 21.8019H25.5358L25.9284 19.92H22.6633L22.8597 21.8019H22.8595Z" fill="#2E0F07"/>
<path d="M22.8282 22.9874C22.7543 22.9874 22.6904 22.9318 22.6819 22.8566L22.5803 21.9658L22.3579 19.8334L21.537 18.8773C21.4107 18.7349 21.6381 18.5374 21.7609 18.6851C21.7803 18.7339 22.692 19.7144 22.6466 19.7568L22.8736 21.9336L22.9749 22.8231C22.9854 22.9098 22.9156 22.9878 22.8282 22.9873V22.9874Z" fill="#2E0F07"/>
<path d="M25.4828 22.988C25.3913 22.9889 25.3193 22.9022 25.3379 22.8122L25.5117 21.9214C25.5456 21.7335 25.8407 21.7903 25.8013 21.9779L25.6274 22.8687C25.6137 22.9391 25.552 22.9879 25.4828 22.9879V22.988Z" fill="#2E0F07"/>
<path d="M23.3209 23.2565C23.318 23.9005 22.3387 23.9005 22.3359 23.2565C22.3389 22.6124 23.3181 22.6124 23.3209 23.2565Z" fill="#C0785B"/>
<path d="M22.8285 23.8972C21.9874 23.8821 21.9876 22.6321 22.8285 22.6172C23.6696 22.6323 23.6694 23.8822 22.8285 23.8972ZM22.8285 22.912C22.3774 22.9144 22.3774 23.5998 22.8285 23.6021C23.2796 23.5997 23.2796 22.9143 22.8285 22.912Z" fill="#2E0F07"/>
<path d="M25.9748 23.2565C25.9718 23.9005 24.9925 23.9005 24.9897 23.2565C24.9927 22.6124 25.972 22.6124 25.9748 23.2565Z" fill="#C0785B"/>
<path d="M25.4818 23.8972C24.6408 23.8821 24.6409 22.6321 25.4818 22.6172C26.3229 22.6323 26.3228 23.8822 25.4818 23.8972ZM25.4818 22.912C25.0308 22.9144 25.0308 23.5998 25.4818 23.6021C25.9329 23.5997 25.9329 22.9143 25.4818 22.912Z" fill="#2E0F07"/>
<path d="M25.5494 22.541H22.8286C22.7471 22.541 22.6812 22.4749 22.6812 22.3935C22.6812 22.3122 22.7472 22.2461 22.8286 22.2461H25.5494C25.74 22.2433 25.7413 22.5439 25.5494 22.5411V22.541Z" fill="#2E0F07"/>
<path d="M25.975 20.3953H22.6371C22.5869 20.3953 22.5464 20.3546 22.5464 20.3046C22.5464 20.2545 22.5871 20.2139 22.6371 20.2139H25.975C26.0918 20.2122 26.0935 20.3971 25.975 20.3954V20.3953Z" fill="#2E0F07"/>
<path d="M25.9066 20.9011H22.6083C22.5581 20.9011 22.5176 20.8605 22.5176 20.8104C22.5176 20.7604 22.5582 20.7197 22.6083 20.7197H25.9066C26.0234 20.7181 26.0251 20.9029 25.9066 20.9013V20.9011Z" fill="#2E0F07"/>
<path d="M25.7927 21.4197H22.6625C22.6123 21.4197 22.5718 21.379 22.5718 21.329C22.5718 21.279 22.6124 21.2383 22.6625 21.2383H25.7927C25.9095 21.2366 25.9111 21.4215 25.7927 21.4198V21.4197Z" fill="#2E0F07"/>
<path d="M23.0861 22.0401C22.886 22.1404 23.0418 19.7684 22.9953 19.7306C22.9953 19.6805 23.0359 19.6398 23.0861 19.6398C23.2862 19.5395 23.1304 21.9115 23.1769 21.9493C23.1769 21.9994 23.1363 22.0401 23.0861 22.0401Z" fill="#2E0F07"/>
<path d="M23.6598 22.0399C23.4597 22.1352 23.6156 19.8128 23.569 19.7724C23.569 19.7222 23.6096 19.6816 23.6598 19.6816C23.8599 19.5863 23.7039 21.9087 23.7506 21.9491C23.7506 21.9993 23.71 22.0399 23.6598 22.0399Z" fill="#2E0F07"/>
<path d="M24.2277 21.9387C24.0275 22.028 24.1836 19.7739 24.1369 19.7301C24.1369 19.68 24.1776 19.6393 24.2277 19.6393C24.428 19.55 24.2719 21.8041 24.3185 21.8479C24.3185 21.898 24.2779 21.9387 24.2277 21.9387Z" fill="#2E0F07"/>
<path d="M24.7194 22.0298C24.5192 22.124 24.6753 19.8133 24.6286 19.7723C24.6286 19.7222 24.6693 19.6815 24.7194 19.6815C24.9197 19.5873 24.7636 21.8981 24.8102 21.939C24.8102 21.9892 24.7696 22.0298 24.7194 22.0298Z" fill="#2E0F07"/>
<path d="M25.2576 21.9215C25.0613 22.0345 25.2109 19.8046 25.1668 19.7727C25.1668 19.7226 25.2074 19.6819 25.2576 19.6819C25.4539 19.5688 25.3043 21.7989 25.3484 21.8307C25.3484 21.8808 25.3078 21.9215 25.2576 21.9215Z" fill="#2E0F07"/>
<path d="M25.7928 21.1683C25.7427 21.1683 25.7021 21.1277 25.7021 21.0776V19.7723C25.7021 19.7222 25.7428 19.6816 25.7928 19.6816C25.8429 19.6816 25.8835 19.7223 25.8835 19.7723V21.0776C25.8835 21.1278 25.8429 21.1683 25.7928 21.1683Z" fill="#2E0F07"/>
<path d="M3.22398 21.374H0.828613V23.7694H3.22398V21.374Z" fill="#D3A18C"/>
<path d="M3.22395 23.9168H0.828575C0.747108 23.9168 0.681152 23.8507 0.681152 23.7694V21.374C0.681152 21.2925 0.747248 21.2266 0.828575 21.2266H3.22395C3.30541 21.2266 3.37137 21.2927 3.37137 21.374V23.7694C3.37137 23.8509 3.30527 23.9168 3.22395 23.9168ZM0.975997 23.622H3.07638V21.5216H0.975997V23.622Z" fill="#2E0F07"/>
<path d="M3.22359 22.2381C3.17622 22.1904 0.645166 22.3492 0.737393 22.1474C0.634686 21.9464 3.18768 22.1035 3.22359 22.0564C3.34069 22.0547 3.34181 22.2397 3.22359 22.2379V22.2381Z" fill="#2E0F07"/>
<path d="M3.22359 22.9197C3.17622 22.8721 0.645166 23.0308 0.737393 22.829C0.634686 22.6281 3.18768 22.7851 3.22359 22.738C3.34069 22.7364 3.34181 22.9214 3.22359 22.9196V22.9197Z" fill="#2E0F07"/>
<path d="M21.0394 12.6045H4.14209V14.7637H21.0394V12.6045Z" fill="#F8F082"/>
<path d="M21.0388 14.9115C20.8909 14.7686 3.96326 15.1876 3.99456 14.7643C3.99414 14.7639 3.99414 12.6046 3.99414 12.6046C3.99414 12.5232 4.06024 12.4572 4.14156 12.4572C4.28954 12.6 21.2171 12.1811 21.1858 12.6044C21.1863 12.6048 21.1863 14.764 21.1863 14.764C21.1863 14.8455 21.1202 14.9115 21.0388 14.9115ZM4.28913 14.6166H20.8914V12.7522H4.28913V14.6166Z" fill="#2E0F07"/>
</svg>
