<svg width="27" height="24" viewBox="0 0 27 24" fill="none" xmlns="http://www.w3.org/2000/svg">
<path d="M7.43866 5.23434V5.18555H3.59326L5.4586 7.05089C5.72826 6.13149 6.48587 5.42182 7.43866 5.2352V5.23434Z" fill="#042110"/>
<path d="M7.93804 10.3705C7.2549 10.3705 6.63512 10.1043 6.17285 9.67285L6.87567 10.3748C6.90563 10.374 6.9356 10.3705 6.96641 10.3705H7.93889H7.93804Z" fill="#042110"/>
<path d="M1.98474 20.1777L2.54717 20.7402H3.59327C2.98461 20.7402 2.42647 20.5287 1.98389 20.1777H1.98474Z" fill="#042110"/>
<path d="M5.31787 14.9629L5.90855 15.5536H6.96578C6.34 15.5536 5.76559 15.3319 5.31787 14.9629Z" fill="#042110"/>
<path d="M4.43476 0.839844H3.59326L5.15128 2.39786V0.839844H4.43476Z" fill="#042110"/>
<path d="M19.6992 22.0304H26.6136V20.7412H24.619H19.6992V22.0304Z" fill="#011214"/>
<path d="M3.59372 20.7412H2.54676H0V22.0304H15.92V20.7412H3.59372Z" fill="#011214"/>
<path d="M10.5957 6.36781C10.5957 7.23928 9.88774 7.94552 9.01713 7.94552C8.59852 7.94552 8.221 7.7803 7.9385 7.51493V8.92142C7.30588 8.92142 6.79396 8.4095 6.79396 7.77688C6.79396 7.3069 7.07817 6.9037 7.48393 6.72736C7.45654 6.61093 7.43856 6.49194 7.43856 6.36696V6.10757C6.71691 6.32415 6.18701 6.98588 6.18701 7.77688C6.18701 8.74251 6.97287 9.52751 7.9385 9.52751H19.9798V6.02539H10.5957V6.3661V6.36781Z" fill="#D5D8D8"/>
<path d="M10.5952 6.02705H19.9793H20.6949H21.5364V5.18555H16.9985H10.5952V6.02705Z" fill="#063B5B"/>
<path d="M20.695 9.52737H7.93808C6.97245 9.52737 6.1866 8.74151 6.1866 7.77674C6.1866 6.9866 6.71735 6.32401 7.43815 6.10743V5.2334C6.48536 5.42002 5.72775 6.12969 5.45809 7.04909C5.38961 7.28108 5.34424 7.52249 5.34424 7.77674C5.34424 8.52578 5.66355 9.19864 6.17119 9.67204C6.63431 10.1035 7.2541 10.3697 7.93637 10.3697H21.5348V9.52822H20.6933L20.695 9.52737Z" fill="#063B5B"/>
<path d="M6.79346 7.77706C6.79346 8.40883 7.30538 8.92161 7.938 8.92161V7.51511C7.71628 7.30623 7.55535 7.03572 7.48344 6.72754C7.07767 6.90389 6.79346 7.30709 6.79346 7.77706Z" fill="#012428"/>
<path d="M1.84326 18.147C1.84326 19.1126 2.62826 19.8976 3.59389 19.8976H15.9202V18.8464H19.6997V19.8976H23.0623V16.3955H3.59389C2.62826 16.3955 1.84326 17.1814 1.84326 18.1461V18.147ZM3.59389 19.2907C2.96213 19.2907 2.44935 18.7788 2.44935 18.1461C2.44935 17.5135 2.96213 17.0025 3.59389 17.0025V19.2907Z" fill="#D5D8D8"/>
<path d="M20.0807 15.5537H3.59397C2.16264 15.5537 1.00098 16.7145 1.00098 18.1467C1.00098 18.9702 1.3862 19.7022 1.98458 20.1773C2.42716 20.5282 2.98531 20.7397 3.59397 20.7397H15.9203V19.8982H3.59397C2.62834 19.8982 1.84333 19.1123 1.84333 18.1476C1.84333 17.1828 2.62834 16.3969 3.59397 16.3969H24.6195V15.5554H20.0807V15.5537Z" fill="#012428"/>
<path d="M19.6992 20.7398H24.619V19.8975H23.7775H23.0618H19.6992V20.7398Z" fill="#012428"/>
<path d="M2.44922 18.1476C2.44922 18.7802 2.962 19.2921 3.59376 19.2921V17.0039C2.962 17.0039 2.44922 17.5158 2.44922 18.1476Z" fill="#011214"/>
<path d="M16.9983 0.839844H5.15137V4.34196H7.43874V2.59047H10.5959V4.34196H16.9992C17.9648 4.34196 18.7506 3.5561 18.7506 2.59047C18.7506 1.62485 17.9648 0.839844 16.9992 0.839844H16.9983ZM16.9983 3.73588V1.44679C17.6309 1.44679 18.1428 1.95871 18.1428 2.59047C18.1428 3.22224 17.6309 3.73502 16.9983 3.73502V3.73588Z" fill="#D5D8D8"/>
<path d="M7.43866 4.34375H5.15128H4.43476H3.59326V5.18611H7.43866V4.34375Z" fill="#0E4123"/>
<path d="M18.9363 0.874031L18.7163 0.654882C18.2583 0.248256 17.6582 0 16.9982 0H3.59326V0.841502H16.9982C17.9638 0.841502 18.7497 1.62736 18.7497 2.59213C18.7497 3.55691 17.9638 4.34362 16.9982 4.34362H10.5949V5.18512H16.9982C18.4304 5.18512 19.5912 4.02431 19.5912 2.59213C19.5912 1.93212 19.3421 1.33202 18.9363 0.874031Z" fill="#0E4123"/>
<path d="M18.7163 0.655273L18.9363 0.874423C18.8678 0.796522 18.7942 0.722902 18.7163 0.655273Z" fill="#0E4123"/>
<path d="M18.1431 2.59193C18.1431 1.96016 17.6312 1.44824 16.9985 1.44824V3.73733C17.6312 3.73733 18.1431 3.22455 18.1431 2.59279V2.59193Z" fill="#042110"/>
<path d="M7.43945 2.59277V6.36797C7.43945 6.4921 7.45743 6.61195 7.48482 6.72837C7.55673 7.0357 7.71681 7.30621 7.93939 7.51594C8.22189 7.78132 8.59855 7.94654 9.01802 7.94654C9.88863 7.94654 10.5966 7.24029 10.5966 6.36883V2.59363H7.43945V2.59277Z" fill="#0E4123"/>
<path d="M18.2949 12.9624C18.2949 13.9272 19.0799 14.7131 20.0456 14.7131H24.6194V11.2109H20.0456C19.0799 11.2109 18.2949 11.9959 18.2949 12.9624ZM20.0456 14.1061C19.4129 14.1061 18.901 13.5942 18.901 12.9624C18.901 12.3307 19.4129 11.8179 20.0456 11.8179V14.1061Z" fill="#D5D8D8"/>
<path d="M17.4883 12.9621C17.4883 14.3943 18.6491 15.5543 20.0813 15.5543H26.1781V14.7128H20.0462C19.0805 14.7128 18.2955 13.9269 18.2955 12.9621C18.2955 11.9974 19.0805 11.2106 20.0462 11.2106H26.1781V10.3691H20.0813C18.6491 10.3691 17.4883 11.53 17.4883 12.9613V12.9621Z" fill="#042110"/>
<path d="M18.9009 12.9619C18.9009 13.5937 19.4128 14.1056 20.0454 14.1056V11.8174C19.4128 11.8174 18.9009 12.3293 18.9009 12.9619Z" fill="#042110"/>
<path d="M11.0983 15.555H20.0809C18.6487 15.555 17.4879 14.3951 17.4879 12.9629H8.59863C8.59863 14.3625 9.7115 15.5037 11.0983 15.555Z" fill="#0E4123"/>
<path d="M8.59912 12.9622H17.4884C17.4884 11.5301 18.6492 10.3701 20.0814 10.3701H11.1039C9.71456 10.4198 8.59998 11.5617 8.59998 12.9622H8.59912Z" fill="#0E4123"/>
<path d="M7.93803 10.3701H6.96555C6.93473 10.3701 6.90562 10.3735 6.87481 10.3744C5.48457 10.4223 4.37256 11.5609 4.37256 12.9622H5.82015C5.82015 11.5301 6.98096 10.3701 8.41314 10.3701H7.93803Z" fill="#0E4123"/>
<path d="M6.83838 12.9622H7.58229C7.58229 11.5301 8.74224 10.3701 10.1753 10.3701H9.34234C7.95382 10.4198 6.83924 11.5617 6.83924 12.9622H6.83838Z" fill="#0E4123"/>
<path d="M7.58229 12.9629H6.83838C6.83838 14.3625 7.95039 15.5037 9.33891 15.555H10.1753C8.74224 15.555 7.58229 14.3951 7.58229 12.9629Z" fill="#0E4123"/>
<path d="M8.41314 15.555C6.98096 15.555 5.82015 14.3951 5.82015 12.9629H4.37256C4.37256 13.7693 4.73981 14.4892 5.31764 14.9643C5.76536 15.3333 6.33977 15.555 6.96555 15.555H8.41314Z" fill="#0E4123"/>
<path d="M5.81982 12.9613H6.83767C6.83767 11.5608 7.95226 10.4188 9.34078 10.3691H8.41281C6.98063 10.3691 5.82068 11.53 5.81982 12.9613Z" fill="white"/>
<path d="M6.83767 12.9629H5.81982C5.81982 14.3951 6.98063 15.555 8.41281 15.555H9.33821C7.94969 15.5037 6.83767 14.3617 6.83767 12.9629Z" fill="#D4D7C9"/>
<path d="M7.58191 12.9613H8.5989C8.5989 11.5608 9.71349 10.4188 11.1029 10.3691H10.174C8.74101 10.3691 7.58105 11.53 7.58105 12.9613H7.58191Z" fill="white"/>
<path d="M8.59902 12.9629H7.58203C7.58203 14.3951 8.74199 15.555 10.175 15.555H11.0987C9.71189 15.5037 8.59902 14.3617 8.59902 12.9629Z" fill="#D4D7C9"/>
<path d="M19.6994 19.8989V18.8477H15.9199V19.8989V20.7412V22.0305V24.0002L17.8084 22.1109L19.6994 24.0002V22.0305V20.7412V19.8989Z" fill="#0E4123"/>
</svg>
