<svg width="27" height="24" viewBox="0 0 27 24" fill="none" xmlns="http://www.w3.org/2000/svg">
<path fill-rule="evenodd" clip-rule="evenodd" d="M21.1663 7.3795C21.0774 7.363 20.9827 7.35448 20.8853 7.35448C20.3296 7.35448 19.8793 7.64085 19.8793 7.99375C19.8793 8.07732 19.9043 8.15716 19.9501 8.23008C19.7137 8.34719 19.5615 8.52976 19.5615 8.73469L19.4556 9.52459L19.8676 9.19351C20.0485 9.30529 20.2955 9.37396 20.5675 9.37396C20.7293 9.37396 20.8821 9.34947 21.0178 9.30636C21.2792 9.43198 21.6049 9.50597 21.9573 9.50597C22.3714 9.50597 22.7483 9.40323 23.0277 9.2361C23.1991 9.32233 23.4157 9.37396 23.651 9.37396C24.2067 9.37396 24.657 9.08759 24.657 8.73469C24.657 8.39988 24.252 8.12522 23.7362 8.09755C23.75 8.05549 23.7569 8.01185 23.7569 7.96714C23.7569 7.61423 23.3066 7.32786 22.7509 7.32786C22.6881 7.32786 22.6269 7.33159 22.5673 7.33851C22.5066 7.12932 22.2176 6.9707 21.8705 6.9707C21.5011 6.9707 21.1983 7.15008 21.1653 7.3795H21.1663Z" fill="#F5F5F5"/>
<path d="M20.2178 9.7627H18.6992V13.2885H20.2178V9.7627Z" fill="#EAE5D2"/>
<path fill-rule="evenodd" clip-rule="evenodd" d="M19.4588 9.7627H20.2178V13.288H18.6992V12.3443H19.4588V9.7627Z" fill="#D6D1BF"/>
<path d="M20.6478 9.55664H18.269V10.2688H20.6478V9.55664Z" fill="#6C7890"/>
<path d="M20.6476 9.55664H19.4585V10.2688H20.6476V9.55664Z" fill="#495A6E"/>
<path fill-rule="evenodd" clip-rule="evenodd" d="M5.35218 6.73926L26.5168 15.2031V16.0521L5.34473 7.59889L5.35218 6.73926Z" fill="#A6A6A6"/>
<path fill-rule="evenodd" clip-rule="evenodd" d="M7.87983 1.02251C7.6568 0.981529 7.42153 0.959173 7.17775 0.959173C5.78902 0.959173 4.66325 1.67456 4.66325 2.55709C4.66325 2.76574 4.72659 2.96535 4.84103 3.14792C4.24966 3.44014 3.86961 3.89684 3.86961 4.40996L3.604 6.38473L4.63291 5.55703C5.08588 5.83648 5.70333 6.00841 6.38358 6.00841C6.78812 6.00841 7.1703 5.94773 7.5083 5.83967C8.16194 6.15319 8.97527 6.33895 9.85726 6.33895C10.8931 6.33895 11.8347 6.08239 12.5336 5.66402C12.9621 5.87959 13.5034 6.00841 14.0921 6.00841C15.4808 6.00841 16.6061 5.29302 16.6061 4.41049C16.6061 3.57321 15.5931 2.88657 14.3034 2.8179C14.338 2.71251 14.3561 2.60339 14.3561 2.49108C14.3561 1.60856 13.2303 0.89317 11.8421 0.89317C11.6851 0.89317 11.5313 0.902219 11.3828 0.919784C11.2311 0.39655 10.5093 0 9.64222 0C8.71924 0 7.96074 0.449246 7.87983 1.02251Z" fill="#F5F5F5"/>
<path fill-rule="evenodd" clip-rule="evenodd" d="M8.54793 9.72416H0.784052C0.56901 9.72416 0.37313 9.80454 0.230478 9.93335C0.0883589 10.0616 0 10.2399 0 10.4358V14.0628C0 14.2581 0.0883589 14.4359 0.230478 14.5653V14.5658C0.37313 14.6946 0.56901 14.775 0.784052 14.775H8.54846C8.76457 14.775 8.96045 14.6952 9.10256 14.5658C9.24522 14.4359 9.33304 14.2581 9.33304 14.0628V10.4358C9.33304 10.2399 9.24468 10.0616 9.10256 9.93282C8.96045 9.80401 8.76457 9.72363 8.54846 9.72363L8.54793 9.72416ZM0.784052 10.1228H8.54846C8.6432 10.1228 8.72944 10.158 8.79171 10.2149C8.85452 10.2719 8.89338 10.3501 8.89338 10.4358V14.0628C8.89338 14.149 8.85505 14.2273 8.79278 14.2837H8.79171C8.7289 14.3407 8.64267 14.3758 8.54846 14.3758H0.784052C0.688774 14.3758 0.602544 14.3407 0.540799 14.2848L0.539735 14.2837C0.477458 14.2273 0.439133 14.149 0.439133 14.0628V10.4358C0.439133 10.3501 0.47799 10.2719 0.540799 10.2149V10.2139C0.603076 10.1574 0.689306 10.1228 0.784052 10.1228Z" fill="#495A6E"/>
<path fill-rule="evenodd" clip-rule="evenodd" d="M6.88667 15.4214H0.784052C0.56901 15.4214 0.37313 15.5018 0.230478 15.6306C0.0883589 15.7594 0 15.9372 0 16.1331V19.7601C0 19.9549 0.0883589 20.1332 0.230478 20.2625V20.2631C0.37313 20.3919 0.56901 20.4723 0.784052 20.4723H6.88667C7.10278 20.4723 7.29866 20.3919 7.44078 20.2631C7.5829 20.1332 7.67126 19.9554 7.67126 19.7601V16.1331C7.67126 15.9372 7.5829 15.7589 7.44078 15.6301C7.29866 15.5013 7.10278 15.4209 6.88667 15.4209V15.4214ZM0.784052 15.8206H6.88667C6.98142 15.8206 7.06765 15.8558 7.12993 15.9127C7.19273 15.9697 7.23159 16.0479 7.23159 16.1336V19.7606C7.23159 19.8468 7.19327 19.9251 7.13099 19.9815H7.12993C7.06712 20.0385 6.98089 20.0736 6.88667 20.0736H0.784052C0.688774 20.0736 0.602544 20.0385 0.540799 19.982H0.539735C0.477458 19.9251 0.439133 19.8468 0.439133 19.7606V16.1336C0.439133 16.0479 0.47799 15.9692 0.540799 15.9127C0.603076 15.8558 0.689306 15.8206 0.784052 15.8206Z" fill="#495A6E"/>
<path d="M5.48951 6.94141H1.75928V23.8909H5.48951V6.94141Z" fill="#0E4123"/>
<path d="M5.48963 6.94141H3.62451V23.8909H5.48963V6.94141Z" fill="#0E4123"/>
<path fill-rule="evenodd" clip-rule="evenodd" d="M1.1084 18.749L6.14007 18.7496V19.7369L1.1084 19.7359V18.749Z" fill="#6C7890"/>
<path fill-rule="evenodd" clip-rule="evenodd" d="M1.1084 21.8447L6.14007 21.8453V22.8326L1.1084 22.8316V21.8447Z" fill="#6C7890"/>
<path fill-rule="evenodd" clip-rule="evenodd" d="M1.1084 10.2568L6.14007 10.2574V11.2448L1.1084 11.2437V10.2568Z" fill="#6C7890"/>
<path fill-rule="evenodd" clip-rule="evenodd" d="M1.24902 6.2207L5.99965 6.22124V7.92667L1.24902 7.92454V6.2207Z" fill="#6C7890"/>
<path fill-rule="evenodd" clip-rule="evenodd" d="M3.62451 18.749L6.14008 18.7496V19.7369L3.62451 19.7359V18.749Z" fill="#495A6E"/>
<path d="M6.14008 21.8447H3.62451V22.8321H6.14008V21.8447Z" fill="#495A6E"/>
<path fill-rule="evenodd" clip-rule="evenodd" d="M3.62451 10.2568L6.14008 10.2574V11.2448L3.62451 11.2442V10.2568Z" fill="#495A6E"/>
<path fill-rule="evenodd" clip-rule="evenodd" d="M3.62451 6.2207L5.99956 6.22124V7.92667L3.62451 7.9256V6.2207Z" fill="#495A6E"/>
<path fill-rule="evenodd" clip-rule="evenodd" d="M6.07324 7.88086L26.1451 15.9077V23.9989H6.07324V7.88086Z" fill="#408C5F"/>
<g style="mix-blend-mode:multiply" opacity="0.5">
<path fill-rule="evenodd" clip-rule="evenodd" d="M6.13925 7.90747L22.2312 23.9989H6.07324V7.88086L6.13925 7.90747Z" fill="#BABABA"/>
</g>
<path d="M24.1267 15.9482H20.5684V18.8795H24.1267V15.9482Z" fill="#4E5D70"/>
<path fill-rule="evenodd" clip-rule="evenodd" d="M20.4399 15.8418H24.2553V18.9855H20.4399V15.8418ZM21.8164 15.9483V18.8795H22.9081V15.9483H21.8164ZM21.6951 18.8795V15.9483H20.5682V18.8795H21.6951ZM23.0295 15.9483V18.8795H24.1265V15.9483H23.0295Z" fill="#A19A94"/>
<path d="M24.1267 20.1514H20.5684V23.0826H24.1267V20.1514Z" fill="#4E5D70"/>
<path fill-rule="evenodd" clip-rule="evenodd" d="M20.4399 20.0449H24.2553V23.1886H20.4399V20.0449ZM21.8164 20.1508V23.0821H22.9081V20.1508H21.8164ZM21.6951 23.0827V20.1514H20.5682V23.0827H21.6951ZM23.0295 20.1508V23.0821H24.1265V20.1508H23.0295Z" fill="#A19A94"/>
<g style="mix-blend-mode:multiply" opacity="0.5">
<path fill-rule="evenodd" clip-rule="evenodd" d="M18.731 16.4235L26.1447 23.7387V23.9985H18.665V16.3975L18.731 16.4235Z" fill="#BABABA"/>
</g>
<path fill-rule="evenodd" clip-rule="evenodd" d="M6.11475 23.9996H18.7149V17.2072L12.352 13.3955V17.1092L6.11475 13.3955V23.9996Z" fill="#0E4123"/>
<path d="M11.2657 18.5684H7.2959V21.8392H11.2657V18.5684Z" fill="#4E5D70"/>
<path fill-rule="evenodd" clip-rule="evenodd" d="M7.15283 18.4502H11.41V21.9574H7.15283V18.4502ZM8.68847 18.5678V21.8387H9.90633V18.5678H8.68847ZM8.55327 21.8392V18.5684H7.29602V21.8392H8.55327ZM10.0421 18.5678V21.8387H11.2663V18.5678H10.0421Z" fill="#A19A94"/>
<path d="M17.4556 18.5684H13.4858V21.8392H17.4556V18.5684Z" fill="#4E5D70"/>
<path fill-rule="evenodd" clip-rule="evenodd" d="M13.3423 18.4502H17.5989V21.9574H13.3423V18.4502ZM14.8779 18.5678V21.8387H16.0958V18.5678H14.8779ZM14.7427 21.8392V18.5684H13.4855V21.8392H14.7427ZM16.2315 18.5678V21.8387H17.4558V18.5678H16.2315Z" fill="#A19A94"/>
<path fill-rule="evenodd" clip-rule="evenodd" d="M18.7151 17.2073V16.4217L11.945 12.3662V13.1519L18.7151 17.2079V17.2073ZM12.3522 16.3237V17.1094L5.8291 13.2328V12.4471L12.3522 16.3237Z" fill="#A19A94"/>
<path d="M18.9496 23.084H5.87939V23.9995H18.9496V23.084Z" fill="#A19A94"/>
</svg>
