<svg width="27" height="24" viewBox="0 0 27 24" fill="none" xmlns="http://www.w3.org/2000/svg">
<path d="M13.0825 0.96875C7.00025 0.96875 2.05176 5.91725 2.05176 11.9995C2.05176 18.0818 7.00025 23.0303 13.0825 23.0303C19.1648 23.0303 24.1133 18.0818 24.1133 11.9995C24.1133 5.91725 19.1648 0.96875 13.0825 0.96875Z" fill="#7DB23E"/>
<path d="M13.082 0C6.46543 0 1.08203 5.38282 1.08203 12C1.08203 18.6166 6.46485 24 13.082 24C19.6992 24 25.082 18.6172 25.082 12C25.082 5.38282 19.6986 0 13.082 0ZM22.3522 17.9561C21.4266 17.3601 20.3033 16.856 19.0242 16.4752C19.2835 15.2397 19.4347 13.8972 19.4649 12.4843H24.089C24.0012 14.4937 23.3796 16.3642 22.3528 17.9561H22.3522ZM24.0884 11.5157H19.4661C19.4382 10.0854 19.2864 8.72658 19.0242 7.47652C20.294 7.09802 21.4098 6.59916 22.3307 6.00901C23.3703 7.60851 23.9994 9.49174 24.0884 11.5157ZM21.7505 5.20083C20.9272 5.71539 19.9254 6.16018 18.7922 6.50671C18.2108 4.3287 17.2863 2.5571 16.1456 1.41053C18.3916 2.06173 20.3405 3.40656 21.7505 5.20025V5.20083ZM17.8427 6.76661C16.5305 7.08523 15.0845 7.27768 13.5669 7.31198V0.993653C13.5669 0.993653 13.571 0.993653 13.5733 0.993653C15.3938 1.34425 16.988 3.61006 17.8433 6.76602L17.8427 6.76661ZM12.5913 0.994234C12.5913 0.994234 12.5954 0.994234 12.5977 0.994234V7.31256C11.0802 7.27826 9.63361 7.08581 8.32133 6.76719C9.17661 3.61122 10.7709 1.34541 12.5913 0.994816V0.994234ZM12.5977 8.28063V11.5151H7.66723C7.69572 10.1865 7.83992 8.90625 8.08935 7.7277C9.46558 8.05562 10.9854 8.24749 12.5971 8.28005L12.5977 8.28063ZM12.5977 12.4843V15.6705C10.9854 15.7031 9.46558 15.8955 8.08993 16.2229C7.84282 15.0589 7.69979 13.7954 7.66898 12.4843H12.5983H12.5977ZM12.5977 16.6398V22.9593C10.7744 22.6127 9.17777 20.3446 8.32133 17.1851C9.63361 16.8665 11.0796 16.6741 12.5977 16.6398ZM13.5664 22.9593V16.6398C15.0839 16.6741 16.5305 16.8665 17.8421 17.1851C16.9857 20.3446 15.3891 22.6127 13.5664 22.9593ZM13.5664 15.6705V12.4843H18.4951C18.4637 13.796 18.3207 15.0589 18.0741 16.2229C16.6979 15.895 15.1781 15.7031 13.5664 15.6705ZM13.5664 11.5157V8.28121C15.1786 8.24865 16.6985 8.0562 18.0741 7.72886C18.3241 8.90741 18.4678 10.1871 18.4962 11.5163H13.5658L13.5664 11.5157ZM10.0185 1.41111C8.87776 2.55768 7.95388 4.3287 7.37187 6.50729C6.25554 6.166 5.23165 5.70493 4.41475 5.19967C5.8247 3.40714 7.77305 2.06231 10.0185 1.4117V1.41111ZM2.07568 12.4843H6.69975C6.72998 13.8966 6.88115 15.2391 7.14046 16.4752C5.86133 16.8566 4.73802 17.3607 3.8124 17.9561C2.7856 16.3642 2.16406 14.4937 2.07627 12.4843H2.07568ZM6.69858 11.5157H2.07568C2.16406 9.49174 2.79374 7.60851 3.83333 6.00901C4.74907 6.58985 5.88633 7.10267 7.14046 7.47652C6.87824 8.72658 6.72649 10.0854 6.69858 11.5157ZM4.38859 18.766C5.21595 18.2445 6.22705 17.7945 7.37187 17.445C7.96434 19.6643 8.91206 21.4627 10.0825 22.6057C7.79631 21.958 5.81366 20.5929 4.38859 18.766ZM16.081 22.6057C17.2514 21.4621 18.1991 19.6637 18.7916 17.445C19.9364 17.795 20.9475 18.2451 21.7749 18.766C20.3498 20.5929 18.3672 21.958 16.081 22.6057Z" fill="#006837"/>
<path opacity="0.3" d="M24.1128 11.9995C24.1128 5.91725 19.1643 0.96875 13.082 0.96875V23.0303C19.1643 23.0303 24.1128 18.0818 24.1128 11.9995Z" fill="#006837"/>
<path d="M25.6236 6.07857C24.227 3.87497 20.8838 3.88079 18.8889 6.98268C18.8889 6.98268 18.2511 6.11287 17.1016 5.32214C14.3288 3.41507 9.10299 6.39952 12.4677 11.1765C13.6038 12.7894 18.8889 16.2221 18.8889 16.2221C18.8889 16.2221 23.82 12.919 25.1317 10.8038C26.4434 8.68858 26.3858 7.28095 25.6236 6.07799V6.07857Z" fill="#EA1620"/>
<path d="M25.6236 6.07857C24.227 3.87497 20.8838 3.88079 18.8889 6.98268C18.8889 6.98268 18.2511 6.11287 17.1016 5.32214C14.3288 3.41507 9.10299 6.39952 12.4677 11.1765C13.6038 12.7894 18.8889 16.2221 18.8889 16.2221C18.8889 16.2221 23.82 12.919 25.1317 10.8038C26.4434 8.68858 26.3858 7.28095 25.6236 6.07799V6.07857Z" fill="#EA1620"/>
<path d="M25.1314 10.8038C26.4437 8.68863 26.3856 7.281 25.6233 6.07804C24.2355 3.88839 20.9272 3.88374 18.9282 6.92691V16.1954C19.33 15.9239 23.8779 12.8255 25.1314 10.8038Z" fill="#D30519"/>
<path d="M25.6797 12.4843H0.484326C0.216871 12.4843 0 12.2674 0 12C0 11.7325 0.216871 11.5156 0.484326 11.5156H25.6792C25.9466 11.5156 26.1635 11.7325 26.1635 12C26.1635 12.2674 25.9466 12.4843 25.6792 12.4843H25.6797Z" fill="#572D1A"/>
<path d="M16.3237 14.4851C15.976 13.4222 15.2649 12.5367 14.3242 11.9704L16.3452 10.2506C16.7429 9.9116 16.9708 9.41797 16.9708 8.89643C16.9708 8.54583 16.8156 8.21733 16.5452 7.99406C16.2749 7.77138 15.9225 7.68416 15.5772 7.74986C14.8818 7.88708 14.294 8.35571 14.005 9.00225L12.8823 11.5111C12.848 11.5082 12.8183 11.4966 12.7828 11.4966C12.6881 11.4966 12.6008 11.514 12.5165 11.5355L11.3828 9.00225C11.0938 8.35571 10.506 7.88766 9.8106 7.74986C9.46523 7.68416 9.11347 7.77138 8.84253 7.99406C8.57216 8.21733 8.41692 8.54583 8.41692 8.89643C8.41692 9.41855 8.64484 9.91218 9.04254 10.2506L11.0636 11.9704C10.1228 12.5367 9.41174 13.4222 9.06405 14.4851L8.24773 19.0981C8.16459 19.3527 8.30355 19.626 8.55763 19.7092C8.60763 19.7254 8.65821 19.733 8.70822 19.733C8.9123 19.733 9.10184 19.6033 9.1687 19.3993L9.98502 14.7863C10.3199 13.76 11.0845 12.9431 12.0845 12.5402C12.1526 12.5611 12.2252 12.5611 12.2979 12.5501C12.4351 12.6245 12.5974 12.6768 12.7823 12.6768C12.9671 12.6768 13.1427 12.6222 13.2829 12.542C13.2893 12.5402 13.2962 12.542 13.302 12.5396C14.3021 12.9426 15.0667 13.7595 15.4016 14.7857L15.8958 16.2974C15.9626 16.502 16.1522 16.6311 16.3563 16.6311C16.4063 16.6311 16.4568 16.6235 16.5068 16.6073C16.7609 16.5241 16.8999 16.2503 16.8167 15.9962L16.3225 14.4845L16.3237 14.4851ZM9.67164 9.51274C9.49023 9.35866 9.38674 9.13365 9.38674 8.89643C9.38674 8.81445 9.43209 8.76503 9.45942 8.74293C9.48151 8.72433 9.52512 8.69758 9.58442 8.69758C9.59721 8.69758 9.61059 8.69875 9.62454 8.70107C10.0112 8.77782 10.3379 9.0383 10.499 9.3982L11.0909 10.7215L9.67164 9.51332V9.51274ZM14.8899 9.39762C15.051 9.03772 15.3777 8.77724 15.7644 8.70049C15.7783 8.69758 15.7923 8.697 15.8045 8.697C15.8638 8.697 15.9074 8.72375 15.9295 8.74235C15.9568 8.76445 16.0022 8.81445 16.0022 8.89585C16.0022 9.13365 15.8987 9.35866 15.7173 9.51216L14.298 10.7204L14.8899 9.39704V9.39762Z" fill="#572D1A"/>
<path d="M14.3991 6.00619C14.1241 6.0463 13.8659 6.16491 13.6566 6.34806C13.249 6.70448 13.038 7.23532 13.0897 7.77429C13.1159 8.04815 13.1915 8.31502 13.313 8.56212L13.7555 9.46159L13.6927 8.86097C13.6403 8.36153 13.6572 7.85744 13.7427 7.36207C13.7898 7.08763 13.9345 6.83937 14.1503 6.66261C14.3671 6.48528 14.6311 6.37481 14.9096 6.34574L15.3108 6.30329L15.1416 6.1841C14.9259 6.03235 14.6602 5.96897 14.3991 6.00677V6.00619Z" fill="#F2F2F2"/>
</svg>
