                        <svg
                          xmlns="http://www.w3.org/2000/svg"
                          width="20"
                          height="21"
                          viewBox="0 0 20 21"
                          fill="none"
                        >
                          <g clip-path="url(#clip0_1_2648)">
                            <path
                              d="M10 20.3333C15.5228 20.3333 20 15.8561 20 10.3333C20 4.8104 15.5228 0.333252 10 0.333252C4.47715 0.333252 0 4.8104 0 10.3333C0 15.8561 4.47715 20.3333 10 20.3333Z"
                              fill="url(#paint0_linear_1_2648)"
                            />
                            <path
                              fill-rule="evenodd"
                              clip-rule="evenodd"
                              d="M4.52657 10.2277C7.44177 8.9576 9.3857 8.12027 10.3583 7.71571C13.1354 6.56062 13.7125 6.35997 14.0886 6.35334C14.1714 6.35188 14.3563 6.37239 14.4761 6.46961C14.5773 6.5517 14.6051 6.66259 14.6184 6.74042C14.6318 6.81825 14.6484 6.99555 14.6352 7.13408C14.4847 8.71532 13.8335 12.5526 13.5022 14.3236C13.362 15.073 13.086 15.3242 12.8188 15.3488C12.2381 15.4022 11.7971 14.965 11.2347 14.5963C10.3545 14.0194 9.85732 13.6603 9.003 13.0973C8.01569 12.4466 8.65572 12.0891 9.21839 11.5046C9.36564 11.3517 11.9243 9.0244 11.9738 8.81328C11.98 8.78687 11.9858 8.68845 11.9273 8.63648C11.8688 8.58451 11.7825 8.60228 11.7202 8.61642C11.632 8.63645 10.226 9.56578 7.50219 11.4044C7.1031 11.6784 6.74161 11.812 6.41773 11.805C6.06068 11.7973 5.37385 11.6031 4.86327 11.4371C4.23702 11.2335 3.73929 11.1259 3.78263 10.7802C3.8052 10.6001 4.05318 10.416 4.52657 10.2277Z"
                              fill="white"
                            />
                          </g>
                          <defs>
                            <linearGradient
                              id="paint0_linear_1_2648"
                              x1="10"
                              y1="0.333252"
                              x2="10"
                              y2="20.1849"
                              gradientUnits="userSpaceOnUse"
                            >
                              <stop stop-color="#2AABEE" />
                              <stop offset="1" stop-color="#229ED9" />
                            </linearGradient>
                            <clipPath id="clip0_1_2648">
                              <rect
                                width="20"
                                height="20"
                                fill="white"
                                transform="translate(0 0.333252)"
                              />
                            </clipPath>
                          </defs>
                        </svg>