<svg width="14" height="15" viewBox="0 0 14 15" fill="none" xmlns="http://www.w3.org/2000/svg">
<g clip-path="url(#clip0_1_11451)">
<path d="M11.0833 1.86393H10.5V1.2806C10.5 1.12589 10.4385 0.977516 10.3291 0.86812C10.2197 0.758724 10.0714 0.697266 9.91667 0.697266C9.76196 0.697266 9.61358 0.758724 9.50419 0.86812C9.39479 0.977516 9.33333 1.12589 9.33333 1.2806V1.86393H4.66667V1.2806C4.66667 1.12589 4.60521 0.977516 4.49581 0.86812C4.38642 0.758724 4.23804 0.697266 4.08333 0.697266C3.92862 0.697266 3.78025 0.758724 3.67085 0.86812C3.56146 0.977516 3.5 1.12589 3.5 1.2806V1.86393H2.91667C2.1434 1.86486 1.40208 2.17245 0.855295 2.71923C0.308514 3.26601 0.00092625 4.00734 0 4.7806L0 11.7806C0.00092625 12.5539 0.308514 13.2952 0.855295 13.842C1.40208 14.3888 2.1434 14.6963 2.91667 14.6973H11.0833C11.8566 14.6963 12.5979 14.3888 13.1447 13.842C13.6915 13.2952 13.9991 12.5539 14 11.7806V4.7806C13.9991 4.00734 13.6915 3.26601 13.1447 2.71923C12.5979 2.17245 11.8566 1.86486 11.0833 1.86393ZM1.16667 4.7806C1.16667 4.31647 1.35104 3.87135 1.67923 3.54316C2.00742 3.21497 2.45254 3.0306 2.91667 3.0306H11.0833C11.5475 3.0306 11.9926 3.21497 12.3208 3.54316C12.649 3.87135 12.8333 4.31647 12.8333 4.7806V5.36393H1.16667V4.7806ZM11.0833 13.5306H2.91667C2.45254 13.5306 2.00742 13.3462 1.67923 13.018C1.35104 12.6898 1.16667 12.2447 1.16667 11.7806V6.5306H12.8333V11.7806C12.8333 12.2447 12.649 12.6898 12.3208 13.018C11.9926 13.3462 11.5475 13.5306 11.0833 13.5306Z" fill="#6B7280"/>
<path d="M7 10.3223C7.48325 10.3223 7.875 9.93051 7.875 9.44727C7.875 8.96402 7.48325 8.57227 7 8.57227C6.51675 8.57227 6.125 8.96402 6.125 9.44727C6.125 9.93051 6.51675 10.3223 7 10.3223Z" fill="#6B7280"/>
<path d="M4.08398 10.3223C4.56723 10.3223 4.95898 9.93051 4.95898 9.44727C4.95898 8.96402 4.56723 8.57227 4.08398 8.57227C3.60074 8.57227 3.20898 8.96402 3.20898 9.44727C3.20898 9.93051 3.60074 10.3223 4.08398 10.3223Z" fill="#6B7280"/>
<path d="M9.91602 10.3223C10.3993 10.3223 10.791 9.93051 10.791 9.44727C10.791 8.96402 10.3993 8.57227 9.91602 8.57227C9.43277 8.57227 9.04102 8.96402 9.04102 9.44727C9.04102 9.93051 9.43277 10.3223 9.91602 10.3223Z" fill="#6B7280"/>
</g>
<defs>
<clipPath id="clip0_1_11451">
<rect width="14" height="14" fill="white" transform="translate(0 0.697266)"/>
</clipPath>
</defs>
</svg>
