<svg width="14" height="15" viewBox="0 0 14 15" fill="none" xmlns="http://www.w3.org/2000/svg">
<g clip-path="url(#clip0_1_11454)">
<path d="M7 0.697266C5.61553 0.697266 4.26216 1.10781 3.11101 1.87698C1.95987 2.64615 1.06266 3.7394 0.532846 5.01848C0.003033 6.29756 -0.13559 7.70503 0.134506 9.0629C0.404603 10.4208 1.07129 11.668 2.05026 12.647C3.02922 13.626 4.2765 14.2927 5.63437 14.5628C6.99224 14.8329 8.3997 14.6942 9.67879 14.1644C10.9579 13.6346 12.0511 12.7374 12.8203 11.5863C13.5895 10.4351 14 9.08174 14 7.69727C13.998 5.84137 13.2599 4.06206 11.9475 2.74974C10.6352 1.43742 8.8559 0.699273 7 0.697266V0.697266ZM7 13.5306C5.84628 13.5306 4.71846 13.1885 3.75918 12.5475C2.79989 11.9065 2.05222 10.9955 1.61071 9.92959C1.16919 8.86368 1.05368 7.6908 1.27876 6.55924C1.50384 5.42768 2.05941 4.38828 2.87521 3.57248C3.69102 2.75667 4.73042 2.2011 5.86198 1.97602C6.99353 1.75094 8.16642 1.86646 9.23232 2.30797C10.2982 2.74948 11.2093 3.49715 11.8502 4.45644C12.4912 5.41573 12.8333 6.54354 12.8333 7.69727C12.8316 9.24384 12.2165 10.7266 11.1229 11.8202C10.0293 12.9138 8.54658 13.5289 7 13.5306ZM8.16667 7.69727C8.1676 7.90228 8.11448 8.10392 8.01268 8.28187C7.91087 8.45982 7.76397 8.60781 7.58677 8.71092C7.40957 8.81403 7.20833 8.86862 7.00332 8.8692C6.7983 8.86978 6.59675 8.81633 6.41897 8.71422C6.24119 8.61212 6.09346 8.46497 5.99065 8.28759C5.88784 8.11022 5.83358 7.90888 5.83335 7.70387C5.83312 7.49885 5.88691 7.29739 5.98932 7.11979C6.09172 6.94218 6.23912 6.79469 6.41667 6.69218V4.7806C6.41667 4.62589 6.47813 4.47752 6.58752 4.36812C6.69692 4.25872 6.84529 4.19727 7 4.19727C7.15471 4.19727 7.30309 4.25872 7.41248 4.36812C7.52188 4.47752 7.58334 4.62589 7.58334 4.7806V6.69218C7.76016 6.79386 7.90713 6.94025 8.00952 7.11666C8.1119 7.29307 8.1661 7.4933 8.16667 7.69727Z" fill="#6B7280"/>
</g>
<defs>
<clipPath id="clip0_1_11454">
<rect width="14" height="14" fill="white" transform="translate(0 0.697266)"/>
</clipPath>
</defs>
</svg>
