<svg width="18" height="18" viewBox="0 0 18 18" fill="none" xmlns="http://www.w3.org/2000/svg">
<g clip-path="url(#clip0_34_977)">
<path d="M3.00586 14.6276V3.38625C3.00586 2.88935 3.20325 2.41281 3.55461 2.06145C3.90597 1.71009 4.38252 1.5127 4.87941 1.5127H14.2472C14.4459 1.5127 14.6366 1.59165 14.7771 1.7322C14.9176 1.87274 14.9966 2.06336 14.9966 2.26212V15.7517C14.9966 15.9505 14.9176 16.1411 14.7771 16.2816C14.6366 16.4222 14.4459 16.5011 14.2472 16.5011H4.87941C4.38252 16.5011 3.90597 16.3037 3.55461 15.9524C3.20325 15.601 3.00586 15.1245 3.00586 14.6276ZM3.00586 14.6276C3.00586 14.1307 3.20325 13.6541 3.55461 13.3028C3.90597 12.9514 4.38252 12.754 4.87941 12.754H14.9966" stroke="#0E4123" stroke-width="2" stroke-linecap="round" stroke-linejoin="round"/>
</g>
<defs>
<clipPath id="clip0_34_977">
<rect width="17.9861" height="17.9861" fill="white" transform="translate(0.0078125 0.0136719)"/>
</clipPath>
</defs>
</svg>
