<svg width="6" height="10" viewBox="0 0 6 10" fill="none" xmlns="http://www.w3.org/2000/svg">
<path d="M3 9.19727C2.90756 9.19727 2.82353 9.16859 2.7479 9.11124C2.67227 9.05388 2.61765 8.97668 2.58403 8.87962C2.39076 8.25315 2.14706 7.72815 1.85294 7.30462C1.55882 6.88109 1.27311 6.47521 0.995798 6.08697C0.726891 5.69874 0.493697 5.29727 0.296218 4.88256C0.0987395 4.46785 0 3.95609 0 3.34727C0 2.46491 0.289916 1.71932 0.869748 1.1105C1.44958 0.501677 2.15966 0.197266 3 0.197266C3.84034 0.197266 4.55042 0.501677 5.13025 1.1105C5.71008 1.71932 6 2.46491 6 3.34727C6 3.95609 5.90336 4.46785 5.71008 4.88256C5.51681 5.29727 5.28151 5.69874 5.0042 6.08697C4.73529 6.47521 4.45168 6.88109 4.15336 7.30462C3.85504 7.72815 3.60924 8.25315 3.41597 8.87962C3.38235 8.97668 3.32773 9.05388 3.2521 9.11124C3.17647 9.16859 3.09244 9.19727 3 9.19727ZM3 4.47227C3.29412 4.47227 3.54622 4.36197 3.7563 4.14138C3.96639 3.9208 4.07143 3.65609 4.07143 3.34727C4.07143 3.03844 3.96639 2.77374 3.7563 2.55315C3.54622 2.33256 3.29412 2.22227 3 2.22227C2.70588 2.22227 2.45378 2.33256 2.2437 2.55315C2.03361 2.77374 1.92857 3.03844 1.92857 3.34727C1.92857 3.65609 2.03361 3.9208 2.2437 4.14138C2.45378 4.36197 2.70588 4.47227 3 4.47227Z" fill="#6B7280"/>
<path d="M3 4.47227C3.29412 4.47227 3.54622 4.36197 3.7563 4.14138C3.96639 3.9208 4.07143 3.65609 4.07143 3.34727C4.07143 3.03844 3.96639 2.77374 3.7563 2.55315C3.54622 2.33256 3.29412 2.22227 3 2.22227C2.70588 2.22227 2.45378 2.33256 2.2437 2.55315C2.03361 2.77374 1.92857 3.03844 1.92857 3.34727C1.92857 3.65609 2.03361 3.9208 2.2437 4.14138C2.45378 4.36197 2.70588 4.47227 3 4.47227Z" fill="#6B7280"/>
<path d="M3 0.697266C3.70342 0.697266 4.28304 0.945288 4.76855 1.45508C5.25509 1.96596 5.5 2.5867 5.5 3.34766C5.49996 3.9061 5.41073 4.34053 5.25684 4.6709C5.07715 5.05645 4.85774 5.43173 4.59766 5.7959L4.59277 5.80273C4.32478 6.18964 4.04165 6.59423 3.74414 7.0166C3.44147 7.44635 3.19573 7.95737 3 8.54102C2.80498 7.9584 2.5616 7.44857 2.26367 7.01953C1.96839 6.59433 1.68104 6.18607 1.40234 5.7959C1.1503 5.43131 0.932509 5.05527 0.748047 4.66797C0.591219 4.33863 0.500042 3.90503 0.5 3.34766C0.5 2.5867 0.744915 1.96596 1.23145 1.45508C1.71696 0.945288 2.29658 0.697266 3 0.697266ZM3.57129 3.34766C3.57123 3.48442 3.53946 3.59788 3.47266 3.69922L3.39453 3.79688C3.27503 3.92234 3.15187 3.97266 3 3.97266C2.84813 3.97266 2.72497 3.92234 2.60547 3.79688L2.52734 3.69922C2.48272 3.63154 2.45391 3.55835 2.43945 3.47656L2.42871 3.34766C2.42871 3.21096 2.46072 3.09739 2.52734 2.99609L2.60547 2.89844C2.72498 2.77296 2.84813 2.72266 3 2.72266C3.15187 2.72266 3.27502 2.77296 3.39453 2.89844C3.51447 3.02453 3.57129 3.16544 3.57129 3.34766ZM4.57129 3.34766C4.57129 2.91242 4.41814 2.52299 4.11816 2.20801C3.81754 1.89248 3.43624 1.72266 3 1.72266C2.61819 1.72266 2.27842 1.85259 1.99805 2.09668L1.88184 2.20801C1.58186 2.52299 1.42871 2.91242 1.42871 3.34766C1.4288 3.78274 1.58195 4.17144 1.88184 4.48633C2.18247 4.80192 2.56372 4.97266 3 4.97266C3.38185 4.97266 3.72156 4.8418 4.00195 4.59766L4.11816 4.48633C4.38075 4.21061 4.53113 3.87828 4.56445 3.50781L4.57129 3.34766Z" stroke="#6B7280"/>
<ellipse cx="3.00036" cy="3.29102" rx="1.36364" ry="1.40625" fill="white"/>
</svg>
