<svg width="18" height="19" viewBox="0 0 18 19" fill="none" xmlns="http://www.w3.org/2000/svg">
<path d="M3.00488 15.1207V3.87941C3.00488 3.38252 3.20227 2.90597 3.55363 2.55461C3.90499 2.20325 4.38154 2.00586 4.87844 2.00586H14.2462C14.445 2.00586 14.6356 2.08482 14.7761 2.22536C14.9167 2.3659 14.9956 2.55652 14.9956 2.75528V16.2449C14.9956 16.4436 14.9167 16.6342 14.7761 16.7748C14.6356 16.9153 14.445 16.9943 14.2462 16.9943H4.87844C4.38154 16.9943 3.90499 16.7969 3.55363 16.4455C3.20227 16.0942 3.00488 15.6176 3.00488 15.1207ZM3.00488 15.1207C3.00488 14.6238 3.20227 14.1473 3.55363 13.7959C3.90499 13.4446 4.38154 13.2472 4.87844 13.2472H14.9956" stroke="#6B7280" stroke-width="2" stroke-linecap="round" stroke-linejoin="round"/>
</svg>
