<svg width="18" height="18" viewBox="0 0 18 18" fill="none" xmlns="http://www.w3.org/2000/svg">
<g clip-path="url(#clip0_1_12533)">
<path d="M11.2477 10.5048C11.3976 9.75535 11.7723 9.23076 12.3719 8.63122C13.1213 7.95674 13.496 6.98249 13.496 6.00825C13.496 4.81569 13.0222 3.67198 12.179 2.82872C11.3357 1.98546 10.192 1.51172 8.99946 1.51172C7.8069 1.51172 6.6632 1.98546 5.81993 2.82872C4.97667 3.67198 4.50293 4.81569 4.50293 6.00825C4.50293 6.75767 4.65281 7.65697 5.62706 8.63122C6.15166 9.15582 6.60131 9.75535 6.75119 10.5048" stroke="#0E4123" stroke-width="2" stroke-linecap="round" stroke-linejoin="round"/>
<path d="M6.75195 13.5039H11.2485" stroke="#0E4123" stroke-width="2" stroke-linecap="round" stroke-linejoin="round"/>
<path d="M7.50098 16.5H10.4987" stroke="#0E4123" stroke-width="2" stroke-linecap="round" stroke-linejoin="round"/>
</g>
<defs>
<clipPath id="clip0_1_12533">
<rect width="17.9861" height="17.9861" fill="white" transform="translate(0.00683594 0.0136719)"/>
</clipPath>
</defs>
</svg>
