<?xml version="1.0" encoding="UTF-8"?>
<svg width="800px" height="800px" viewBox="0 0 16 16" xmlns="http://www.w3.org/2000/svg">
  <!-- leaf -->
  <path d="m 8.6 0.3 c -0.4 0.5 -0.5 1.1 -0.3 1.6 c 0.5 0.1 1.1 -0.1 1.4 -0.6 c 0.4 -0.5 0.5 -1.1 0.3 -1.6 c -0.5 -0.1 -1.1 0.1 -1.4 0.6 z" fill="#7c9c6f"/>
  <!-- apple-shaped head -->
  <path d="m 8 1.4 c -1.65625 0 -3 1.34375 -3 3 s 1.34375 3 3 3 s 3 -1.34375 3 -3 c 0 -0.5 -0.125 -0.96875 -0.34375 -1.375 c -0.28125 0.25 -0.65625 0.40625 -1.0625 0.40625 c -0.875 0 -1.59375 -0.71875 -1.59375 -1.59375 c 0 -0.1875 0.03125 -0.375 0.09375 -0.5625 c -0.03125 0 -0.0625 0 -0.09375 0 z" fill="#9fb8c9"/>
  <!-- body -->
  <path d="m 6.5 8 c -2.492188 0 -4.5 2.007812 -4.5 4.5 v 0.5 c 0 1.109375 0.890625 2 2 2 h 8 c 1.109375 0 2 -0.890625 2 -2 v -0.5 c 0 -2.492188 -2.007812 -4.5 -4.5 -4.5 z" fill="#9fb8c9"/>
</svg>
